<mxfile host="app.diagrams.net" modified="2021-04-14T15:27:24.702Z" agent="5.0 (Windows)" etag="ZHP3SAyqinq6kc5ZdbV3" version="14.5.4" type="github">
  <diagram id="SgajTCS_TB5HfmCs7Fzj" name="Page-1">
    <mxGraphModel dx="1185" dy="688" grid="1" gridSize="10" guides="1" tooltips="1" connect="1" arrows="1" fold="1" page="1" pageScale="1" pageWidth="1654" pageHeight="1169" math="0" shadow="0">
      <root>
        <mxCell id="0" />
        <mxCell id="1" parent="0" />
        <mxCell id="WNvgnv75Yjdc2z-mZm8R-49" value="" style="group;fontFamily=Roboto;fontSource=https%3A%2F%2Ffonts.googleapis.com%2Fcss%3Ffamily%3DRoboto;" parent="1" connectable="0" vertex="1">
          <mxGeometry x="1000" y="600" width="120" height="140" as="geometry" />
        </mxCell>
        <mxCell id="WNvgnv75Yjdc2z-mZm8R-8" value="Ordine" style="rounded=0;whiteSpace=wrap;html=1;fontFamily=Roboto;fontSource=https%3A%2F%2Ffonts.googleapis.com%2Fcss%3Ffamily%3DRoboto;" parent="WNvgnv75Yjdc2z-mZm8R-49" vertex="1">
          <mxGeometry y="80" width="120" height="60" as="geometry" />
        </mxCell>
        <mxCell id="WNvgnv75Yjdc2z-mZm8R-26" value="" style="group;fontFamily=Roboto;fontSource=https%3A%2F%2Ffonts.googleapis.com%2Fcss%3Ffamily%3DRoboto;" parent="WNvgnv75Yjdc2z-mZm8R-49" connectable="0" vertex="1">
          <mxGeometry x="90" width="40" height="80" as="geometry" />
        </mxCell>
        <mxCell id="0HRdDKmyG6_fZgm3HTcE-7" value="" style="ellipse;whiteSpace=wrap;html=1;aspect=fixed;fontFamily=Roboto;fontSource=https%3A%2F%2Ffonts.googleapis.com%2Fcss%3Ffamily%3DRoboto;" parent="WNvgnv75Yjdc2z-mZm8R-26" vertex="1">
          <mxGeometry x="10" y="30" width="20" height="20" as="geometry" />
        </mxCell>
        <mxCell id="0HRdDKmyG6_fZgm3HTcE-8" value="" style="endArrow=none;html=1;entryX=0.5;entryY=1;entryDx=0;entryDy=0;fontFamily=Roboto;fontSource=https%3A%2F%2Ffonts.googleapis.com%2Fcss%3Ffamily%3DRoboto;" parent="WNvgnv75Yjdc2z-mZm8R-26" target="0HRdDKmyG6_fZgm3HTcE-7" edge="1">
          <mxGeometry y="10" width="50" height="50" as="geometry">
            <mxPoint x="20" y="80" as="sourcePoint" />
            <mxPoint x="440" y="10" as="targetPoint" />
          </mxGeometry>
        </mxCell>
        <mxCell id="0HRdDKmyG6_fZgm3HTcE-9" value="&lt;div&gt;Data emissione&lt;/div&gt;" style="text;html=1;strokeColor=none;fillColor=none;align=center;verticalAlign=middle;whiteSpace=wrap;rounded=0;fontFamily=Roboto;fontSource=https%3A%2F%2Ffonts.googleapis.com%2Fcss%3Ffamily%3DRoboto;" parent="WNvgnv75Yjdc2z-mZm8R-26" vertex="1">
          <mxGeometry width="40" height="20" as="geometry" />
        </mxCell>
        <mxCell id="WNvgnv75Yjdc2z-mZm8R-27" value="" style="group;fontFamily=Roboto;fontSource=https%3A%2F%2Ffonts.googleapis.com%2Fcss%3Ffamily%3DRoboto;" parent="WNvgnv75Yjdc2z-mZm8R-49" connectable="0" vertex="1">
          <mxGeometry x="-10" y="10" width="40" height="70" as="geometry" />
        </mxCell>
        <mxCell id="WNvgnv75Yjdc2z-mZm8R-28" value="" style="endArrow=none;html=1;fontFamily=Roboto;fontSource=https%3A%2F%2Ffonts.googleapis.com%2Fcss%3Ffamily%3DRoboto;" parent="WNvgnv75Yjdc2z-mZm8R-27" edge="1">
          <mxGeometry width="50" height="50" relative="1" as="geometry">
            <mxPoint x="20" y="70" as="sourcePoint" />
            <mxPoint x="20" y="40" as="targetPoint" />
          </mxGeometry>
        </mxCell>
        <mxCell id="WNvgnv75Yjdc2z-mZm8R-29" value="" style="ellipse;fontFamily=Roboto;fontSource=https%3A%2F%2Ffonts.googleapis.com%2Fcss%3Ffamily%3DRoboto;fillColor=#000000;" parent="WNvgnv75Yjdc2z-mZm8R-27" vertex="1">
          <mxGeometry x="10" y="20" width="20" height="20" as="geometry" />
        </mxCell>
        <mxCell id="WNvgnv75Yjdc2z-mZm8R-30" value="Codice ordine" style="text;html=1;strokeColor=none;fillColor=none;align=center;verticalAlign=middle;whiteSpace=wrap;rounded=0;fontFamily=Roboto;fontSource=https%3A%2F%2Ffonts.googleapis.com%2Fcss%3Ffamily%3DRoboto;" parent="WNvgnv75Yjdc2z-mZm8R-27" vertex="1">
          <mxGeometry x="-20" width="80" height="20" as="geometry" />
        </mxCell>
        <mxCell id="rO08BDKu-81Ofjsckch7-46" value="" style="group;fontFamily=Roboto;fontSource=https%3A%2F%2Ffonts.googleapis.com%2Fcss%3Ffamily%3DRoboto;" parent="1" connectable="0" vertex="1">
          <mxGeometry x="1000" y="390" width="230" height="130" as="geometry" />
        </mxCell>
        <mxCell id="WNvgnv75Yjdc2z-mZm8R-7" value="&lt;div&gt;Fornitore&lt;/div&gt;" style="rounded=0;whiteSpace=wrap;html=1;fontFamily=Roboto;fontSource=https%3A%2F%2Ffonts.googleapis.com%2Fcss%3Ffamily%3DRoboto;" parent="rO08BDKu-81Ofjsckch7-46" vertex="1">
          <mxGeometry y="70" width="120" height="60" as="geometry" />
        </mxCell>
        <mxCell id="rO08BDKu-81Ofjsckch7-3" value="" style="group;fontFamily=Roboto;fontSource=https%3A%2F%2Ffonts.googleapis.com%2Fcss%3Ffamily%3DRoboto;" parent="rO08BDKu-81Ofjsckch7-46" connectable="0" vertex="1">
          <mxGeometry width="40" height="70" as="geometry" />
        </mxCell>
        <mxCell id="rO08BDKu-81Ofjsckch7-4" value="" style="endArrow=none;html=1;fontFamily=Roboto;fontSource=https%3A%2F%2Ffonts.googleapis.com%2Fcss%3Ffamily%3DRoboto;" parent="rO08BDKu-81Ofjsckch7-3" edge="1">
          <mxGeometry width="50" height="50" relative="1" as="geometry">
            <mxPoint x="20" y="70" as="sourcePoint" />
            <mxPoint x="20" y="40" as="targetPoint" />
          </mxGeometry>
        </mxCell>
        <mxCell id="rO08BDKu-81Ofjsckch7-5" value="" style="ellipse;fontFamily=Roboto;fontSource=https%3A%2F%2Ffonts.googleapis.com%2Fcss%3Ffamily%3DRoboto;fillColor=#000000;" parent="rO08BDKu-81Ofjsckch7-3" vertex="1">
          <mxGeometry x="10" y="20" width="20" height="20" as="geometry" />
        </mxCell>
        <mxCell id="rO08BDKu-81Ofjsckch7-6" value="Codice" style="text;html=1;strokeColor=none;fillColor=none;align=center;verticalAlign=middle;whiteSpace=wrap;rounded=0;fontFamily=Roboto;fontSource=https%3A%2F%2Ffonts.googleapis.com%2Fcss%3Ffamily%3DRoboto;" parent="rO08BDKu-81Ofjsckch7-3" vertex="1">
          <mxGeometry width="40" height="20" as="geometry" />
        </mxCell>
        <mxCell id="rO08BDKu-81Ofjsckch7-7" value="" style="group;fontFamily=Roboto;fontSource=https%3A%2F%2Ffonts.googleapis.com%2Fcss%3Ffamily%3DRoboto;" parent="rO08BDKu-81Ofjsckch7-46" connectable="0" vertex="1">
          <mxGeometry x="37" width="40" height="70" as="geometry" />
        </mxCell>
        <mxCell id="rO08BDKu-81Ofjsckch7-10" value="Partita IVA" style="text;html=1;strokeColor=none;fillColor=none;align=center;verticalAlign=middle;whiteSpace=wrap;rounded=0;fontFamily=Roboto;fontSource=https%3A%2F%2Ffonts.googleapis.com%2Fcss%3Ffamily%3DRoboto;" parent="rO08BDKu-81Ofjsckch7-7" vertex="1">
          <mxGeometry y="-10" width="40" height="30" as="geometry" />
        </mxCell>
        <mxCell id="rO08BDKu-81Ofjsckch7-15" value="" style="ellipse;whiteSpace=wrap;html=1;aspect=fixed;fontFamily=Roboto;fontSource=https%3A%2F%2Ffonts.googleapis.com%2Fcss%3Ffamily%3DRoboto;" parent="rO08BDKu-81Ofjsckch7-7" vertex="1">
          <mxGeometry x="10" y="20" width="20" height="20" as="geometry" />
        </mxCell>
        <mxCell id="rO08BDKu-81Ofjsckch7-12" value="" style="endArrow=none;html=1;fontFamily=Roboto;fontSource=https%3A%2F%2Ffonts.googleapis.com%2Fcss%3Ffamily%3DRoboto;" parent="rO08BDKu-81Ofjsckch7-46" edge="1">
          <mxGeometry width="50" height="50" relative="1" as="geometry">
            <mxPoint x="96.83000000000004" y="70" as="sourcePoint" />
            <mxPoint x="96.83000000000004" y="40" as="targetPoint" />
          </mxGeometry>
        </mxCell>
        <mxCell id="rO08BDKu-81Ofjsckch7-13" value="" style="ellipse;whiteSpace=wrap;html=1;aspect=fixed;fontFamily=Roboto;fontSource=https%3A%2F%2Ffonts.googleapis.com%2Fcss%3Ffamily%3DRoboto;" parent="rO08BDKu-81Ofjsckch7-46" vertex="1">
          <mxGeometry x="87" y="20" width="20" height="20" as="geometry" />
        </mxCell>
        <mxCell id="rO08BDKu-81Ofjsckch7-14" value="Indirizzo" style="text;html=1;strokeColor=none;fillColor=none;align=center;verticalAlign=middle;whiteSpace=wrap;rounded=0;fontFamily=Roboto;fontSource=https%3A%2F%2Ffonts.googleapis.com%2Fcss%3Ffamily%3DRoboto;" parent="rO08BDKu-81Ofjsckch7-46" vertex="1">
          <mxGeometry x="77" width="40" height="20" as="geometry" />
        </mxCell>
        <mxCell id="rO08BDKu-81Ofjsckch7-22" value="" style="endArrow=none;html=1;entryX=0;entryY=1;entryDx=0;entryDy=0;fontFamily=Roboto;fontSource=https%3A%2F%2Ffonts.googleapis.com%2Fcss%3Ffamily%3DRoboto;" parent="rO08BDKu-81Ofjsckch7-46" target="rO08BDKu-81Ofjsckch7-23" edge="1">
          <mxGeometry width="50" height="50" relative="1" as="geometry">
            <mxPoint x="120" y="70" as="sourcePoint" />
            <mxPoint x="140" y="60" as="targetPoint" />
          </mxGeometry>
        </mxCell>
        <mxCell id="rO08BDKu-81Ofjsckch7-23" value="" style="ellipse;whiteSpace=wrap;html=1;aspect=fixed;fontFamily=Roboto;fontSource=https%3A%2F%2Ffonts.googleapis.com%2Fcss%3Ffamily%3DRoboto;" parent="rO08BDKu-81Ofjsckch7-46" vertex="1">
          <mxGeometry x="140" y="30" width="20" height="20" as="geometry" />
        </mxCell>
        <mxCell id="rO08BDKu-81Ofjsckch7-24" value="Recapiti telefonici" style="text;html=1;strokeColor=none;fillColor=none;align=center;verticalAlign=middle;whiteSpace=wrap;rounded=0;fontFamily=Roboto;fontSource=https%3A%2F%2Ffonts.googleapis.com%2Fcss%3Ffamily%3DRoboto;" parent="rO08BDKu-81Ofjsckch7-46" vertex="1">
          <mxGeometry x="170" y="20" width="40" height="20" as="geometry" />
        </mxCell>
        <mxCell id="rO08BDKu-81Ofjsckch7-27" value="" style="endArrow=none;html=1;exitX=0.475;exitY=0;exitDx=0;exitDy=0;entryX=0.5;entryY=1;entryDx=0;entryDy=0;exitPerimeter=0;fontFamily=Roboto;fontSource=https%3A%2F%2Ffonts.googleapis.com%2Fcss%3Ffamily%3DRoboto;" parent="rO08BDKu-81Ofjsckch7-46" source="WNvgnv75Yjdc2z-mZm8R-7" target="rO08BDKu-81Ofjsckch7-15" edge="1">
          <mxGeometry width="50" height="50" relative="1" as="geometry">
            <mxPoint x="30" y="60" as="sourcePoint" />
            <mxPoint x="80" y="10" as="targetPoint" />
          </mxGeometry>
        </mxCell>
        <mxCell id="rO08BDKu-81Ofjsckch7-30" value="Indirizzo email" style="text;html=1;strokeColor=none;fillColor=none;align=center;verticalAlign=middle;whiteSpace=wrap;rounded=0;fontFamily=Roboto;fontSource=https%3A%2F%2Ffonts.googleapis.com%2Fcss%3Ffamily%3DRoboto;" parent="rO08BDKu-81Ofjsckch7-46" vertex="1">
          <mxGeometry x="190" y="70" width="40" height="20" as="geometry" />
        </mxCell>
        <mxCell id="rO08BDKu-81Ofjsckch7-32" value="Numero FAX" style="text;html=1;strokeColor=none;fillColor=none;align=center;verticalAlign=middle;whiteSpace=wrap;rounded=0;fontFamily=Roboto;fontSource=https%3A%2F%2Ffonts.googleapis.com%2Fcss%3Ffamily%3DRoboto;" parent="rO08BDKu-81Ofjsckch7-46" vertex="1">
          <mxGeometry x="190" y="104" width="40" height="20" as="geometry" />
        </mxCell>
        <mxCell id="rO08BDKu-81Ofjsckch7-38" value="" style="ellipse;whiteSpace=wrap;html=1;aspect=fixed;fontFamily=Roboto;fontSource=https%3A%2F%2Ffonts.googleapis.com%2Fcss%3Ffamily%3DRoboto;" parent="rO08BDKu-81Ofjsckch7-46" vertex="1">
          <mxGeometry x="160" y="104" width="20" height="20" as="geometry" />
        </mxCell>
        <mxCell id="rO08BDKu-81Ofjsckch7-43" value="" style="ellipse;whiteSpace=wrap;html=1;aspect=fixed;fontFamily=Roboto;fontSource=https%3A%2F%2Ffonts.googleapis.com%2Fcss%3Ffamily%3DRoboto;" parent="rO08BDKu-81Ofjsckch7-46" vertex="1">
          <mxGeometry x="160" y="70" width="20" height="20" as="geometry" />
        </mxCell>
        <mxCell id="rO08BDKu-81Ofjsckch7-44" value="" style="endArrow=none;html=1;entryX=0;entryY=0.5;entryDx=0;entryDy=0;fontFamily=Roboto;fontSource=https%3A%2F%2Ffonts.googleapis.com%2Fcss%3Ffamily%3DRoboto;" parent="rO08BDKu-81Ofjsckch7-46" target="rO08BDKu-81Ofjsckch7-43" edge="1">
          <mxGeometry width="50" height="50" relative="1" as="geometry">
            <mxPoint x="120" y="80" as="sourcePoint" />
            <mxPoint x="130" y="130" as="targetPoint" />
          </mxGeometry>
        </mxCell>
        <mxCell id="rO08BDKu-81Ofjsckch7-45" value="" style="endArrow=none;html=1;entryX=0;entryY=0.5;entryDx=0;entryDy=0;fontFamily=Roboto;fontSource=https%3A%2F%2Ffonts.googleapis.com%2Fcss%3Ffamily%3DRoboto;" parent="rO08BDKu-81Ofjsckch7-46" target="rO08BDKu-81Ofjsckch7-38" edge="1">
          <mxGeometry width="50" height="50" relative="1" as="geometry">
            <mxPoint x="120" y="114" as="sourcePoint" />
            <mxPoint x="120" y="80" as="targetPoint" />
          </mxGeometry>
        </mxCell>
        <mxCell id="WNvgnv75Yjdc2z-mZm8R-60" value="" style="group;fontFamily=Roboto;fontSource=https%3A%2F%2Ffonts.googleapis.com%2Fcss%3Ffamily%3DRoboto;" parent="1" connectable="0" vertex="1">
          <mxGeometry x="280" y="210" width="120" height="130" as="geometry" />
        </mxCell>
        <mxCell id="WNvgnv75Yjdc2z-mZm8R-1" value="&lt;div&gt;Dipartimento&lt;/div&gt;" style="rounded=0;whiteSpace=wrap;html=1;fontFamily=Roboto;fontSource=https%3A%2F%2Ffonts.googleapis.com%2Fcss%3Ffamily%3DRoboto;" parent="WNvgnv75Yjdc2z-mZm8R-60" vertex="1">
          <mxGeometry y="70" width="120" height="60" as="geometry" />
        </mxCell>
        <mxCell id="WNvgnv75Yjdc2z-mZm8R-15" value="" style="group;fontFamily=Roboto;fontSource=https%3A%2F%2Ffonts.googleapis.com%2Fcss%3Ffamily%3DRoboto;" parent="WNvgnv75Yjdc2z-mZm8R-60" connectable="0" vertex="1">
          <mxGeometry width="40" height="70" as="geometry" />
        </mxCell>
        <mxCell id="WNvgnv75Yjdc2z-mZm8R-10" value="" style="endArrow=none;html=1;fontFamily=Roboto;fontSource=https%3A%2F%2Ffonts.googleapis.com%2Fcss%3Ffamily%3DRoboto;" parent="WNvgnv75Yjdc2z-mZm8R-15" edge="1">
          <mxGeometry width="50" height="50" relative="1" as="geometry">
            <mxPoint x="20" y="70" as="sourcePoint" />
            <mxPoint x="20" y="40" as="targetPoint" />
          </mxGeometry>
        </mxCell>
        <mxCell id="WNvgnv75Yjdc2z-mZm8R-12" value="" style="ellipse;fontFamily=Roboto;fontSource=https%3A%2F%2Ffonts.googleapis.com%2Fcss%3Ffamily%3DRoboto;" parent="WNvgnv75Yjdc2z-mZm8R-15" vertex="1">
          <mxGeometry x="10" y="20" width="20" height="20" as="geometry" />
        </mxCell>
        <mxCell id="WNvgnv75Yjdc2z-mZm8R-13" value="Codice" style="text;html=1;strokeColor=none;fillColor=none;align=center;verticalAlign=middle;whiteSpace=wrap;rounded=0;fontFamily=Roboto;fontSource=https%3A%2F%2Ffonts.googleapis.com%2Fcss%3Ffamily%3DRoboto;" parent="WNvgnv75Yjdc2z-mZm8R-15" vertex="1">
          <mxGeometry width="40" height="20" as="geometry" />
        </mxCell>
        <mxCell id="WNvgnv75Yjdc2z-mZm8R-20" value="" style="group;fontFamily=Roboto;fontSource=https%3A%2F%2Ffonts.googleapis.com%2Fcss%3Ffamily%3DRoboto;" parent="WNvgnv75Yjdc2z-mZm8R-60" connectable="0" vertex="1">
          <mxGeometry x="80" width="40" height="70" as="geometry" />
        </mxCell>
        <mxCell id="WNvgnv75Yjdc2z-mZm8R-17" value="" style="ellipse;whiteSpace=wrap;html=1;aspect=fixed;fontFamily=Roboto;fontSource=https%3A%2F%2Ffonts.googleapis.com%2Fcss%3Ffamily%3DRoboto;" parent="WNvgnv75Yjdc2z-mZm8R-20" vertex="1">
          <mxGeometry x="10" y="20" width="20" height="20" as="geometry" />
        </mxCell>
        <mxCell id="WNvgnv75Yjdc2z-mZm8R-18" value="" style="endArrow=none;html=1;entryX=0.5;entryY=1;entryDx=0;entryDy=0;fontFamily=Roboto;fontSource=https%3A%2F%2Ffonts.googleapis.com%2Fcss%3Ffamily%3DRoboto;" parent="WNvgnv75Yjdc2z-mZm8R-20" target="WNvgnv75Yjdc2z-mZm8R-17" edge="1">
          <mxGeometry width="50" height="50" relative="1" as="geometry">
            <mxPoint x="20" y="70" as="sourcePoint" />
            <mxPoint x="440" as="targetPoint" />
          </mxGeometry>
        </mxCell>
        <mxCell id="WNvgnv75Yjdc2z-mZm8R-19" value="Descrizione" style="text;html=1;strokeColor=none;fillColor=none;align=center;verticalAlign=middle;whiteSpace=wrap;rounded=0;fontFamily=Roboto;fontSource=https%3A%2F%2Ffonts.googleapis.com%2Fcss%3Ffamily%3DRoboto;" parent="WNvgnv75Yjdc2z-mZm8R-20" vertex="1">
          <mxGeometry width="40" height="20" as="geometry" />
        </mxCell>
        <mxCell id="tpPD9y9O5CYVwDH-KBWt-45" value="Gestisce" style="shape=rhombus;perimeter=rhombusPerimeter;whiteSpace=wrap;html=1;align=center;fontFamily=Roboto;fontSource=https%3A%2F%2Ffonts.googleapis.com%2Fcss%3Ffamily%3DRoboto;" parent="1" vertex="1">
          <mxGeometry x="480" y="285" width="80" height="50" as="geometry" />
        </mxCell>
        <mxCell id="tpPD9y9O5CYVwDH-KBWt-48" value="" style="endArrow=none;html=1;exitX=1;exitY=0.5;exitDx=0;exitDy=0;entryX=0;entryY=0.5;entryDx=0;entryDy=0;fontFamily=Roboto;fontSource=https%3A%2F%2Ffonts.googleapis.com%2Fcss%3Ffamily%3DRoboto;" parent="1" source="WNvgnv75Yjdc2z-mZm8R-1" target="tpPD9y9O5CYVwDH-KBWt-45" edge="1">
          <mxGeometry width="50" height="50" relative="1" as="geometry">
            <mxPoint x="414" y="360.76" as="sourcePoint" />
            <mxPoint x="464" y="350.76" as="targetPoint" />
          </mxGeometry>
        </mxCell>
        <mxCell id="tpPD9y9O5CYVwDH-KBWt-52" value="(1,1)" style="text;html=1;strokeColor=none;fillColor=none;align=center;verticalAlign=middle;whiteSpace=wrap;rounded=0;fontFamily=Roboto;fontSource=https%3A%2F%2Ffonts.googleapis.com%2Fcss%3Ffamily%3DRoboto;" parent="1" vertex="1">
          <mxGeometry x="400" y="285" width="40" height="20" as="geometry" />
        </mxCell>
        <mxCell id="tpPD9y9O5CYVwDH-KBWt-53" value="(1,N)" style="text;html=1;strokeColor=none;fillColor=none;align=center;verticalAlign=middle;whiteSpace=wrap;rounded=0;fontFamily=Roboto;fontSource=https%3A%2F%2Ffonts.googleapis.com%2Fcss%3Ffamily%3DRoboto;" parent="1" vertex="1">
          <mxGeometry x="600" y="285" width="40" height="20" as="geometry" />
        </mxCell>
        <mxCell id="tpPD9y9O5CYVwDH-KBWt-60" value="Formula" style="shape=rhombus;perimeter=rhombusPerimeter;whiteSpace=wrap;html=1;align=center;fontFamily=Roboto;fontSource=https%3A%2F%2Ffonts.googleapis.com%2Fcss%3Ffamily%3DRoboto;" parent="1" vertex="1">
          <mxGeometry x="290" y="370" width="100" height="60" as="geometry" />
        </mxCell>
        <mxCell id="tpPD9y9O5CYVwDH-KBWt-62" value="" style="line;strokeWidth=1;rotatable=0;dashed=0;labelPosition=right;align=left;verticalAlign=middle;spacingTop=0;spacingLeft=6;points=[];portConstraint=eastwest;fontFamily=Roboto;fontSource=https%3A%2F%2Ffonts.googleapis.com%2Fcss%3Ffamily%3DRoboto;" parent="1" vertex="1">
          <mxGeometry x="304" y="393.5" width="140" as="geometry" />
        </mxCell>
        <mxCell id="tpPD9y9O5CYVwDH-KBWt-64" value="" style="endArrow=none;html=1;rounded=0;entryX=0.5;entryY=0;entryDx=0;entryDy=0;fontFamily=Roboto;fontSource=https%3A%2F%2Ffonts.googleapis.com%2Fcss%3Ffamily%3DRoboto;exitX=0.5;exitY=1;exitDx=0;exitDy=0;" parent="1" target="tpPD9y9O5CYVwDH-KBWt-60" edge="1" source="WNvgnv75Yjdc2z-mZm8R-1">
          <mxGeometry relative="1" as="geometry">
            <mxPoint x="354" y="356.5" as="sourcePoint" />
            <mxPoint x="404" y="463.5" as="targetPoint" />
          </mxGeometry>
        </mxCell>
        <mxCell id="80SjEbUUBAHeHSITV065-4" style="edgeStyle=orthogonalEdgeStyle;rounded=0;orthogonalLoop=1;jettySize=auto;html=1;exitX=0;exitY=0.5;exitDx=0;exitDy=0;entryX=1;entryY=0.5;entryDx=0;entryDy=0;endArrow=none;endFill=0;fontFamily=Roboto;fontSource=https%3A%2F%2Ffonts.googleapis.com%2Fcss%3Ffamily%3DRoboto;" edge="1" parent="1" source="tpPD9y9O5CYVwDH-KBWt-75" target="tpPD9y9O5CYVwDH-KBWt-45">
          <mxGeometry relative="1" as="geometry" />
        </mxCell>
        <mxCell id="tpPD9y9O5CYVwDH-KBWt-75" value="Responsabile" style="rounded=0;whiteSpace=wrap;html=1;fontFamily=Roboto;fontSource=https%3A%2F%2Ffonts.googleapis.com%2Fcss%3Ffamily%3DRoboto;" parent="1" vertex="1">
          <mxGeometry x="640" y="280" width="120" height="60" as="geometry" />
        </mxCell>
        <mxCell id="tpPD9y9O5CYVwDH-KBWt-88" value="" style="ellipse;whiteSpace=wrap;html=1;aspect=fixed;rotation=90;fontFamily=Roboto;fontSource=https%3A%2F%2Ffonts.googleapis.com%2Fcss%3Ffamily%3DRoboto;" parent="1" vertex="1">
          <mxGeometry x="799" y="285" width="20" height="20" as="geometry" />
        </mxCell>
        <mxCell id="tpPD9y9O5CYVwDH-KBWt-89" value="" style="endArrow=none;html=1;entryX=0.5;entryY=1;entryDx=0;entryDy=0;exitX=1;exitY=0.25;exitDx=0;exitDy=0;fontFamily=Roboto;fontSource=https%3A%2F%2Ffonts.googleapis.com%2Fcss%3Ffamily%3DRoboto;" parent="1" source="tpPD9y9O5CYVwDH-KBWt-75" target="tpPD9y9O5CYVwDH-KBWt-88" edge="1">
          <mxGeometry x="434" y="-78.5" width="50" height="50" as="geometry">
            <mxPoint x="434" y="-58.5" as="sourcePoint" />
            <mxPoint x="489" y="376.5" as="targetPoint" />
          </mxGeometry>
        </mxCell>
        <mxCell id="tpPD9y9O5CYVwDH-KBWt-90" value="" style="ellipse;whiteSpace=wrap;html=1;aspect=fixed;rotation=90;fontFamily=Roboto;fontSource=https%3A%2F%2Ffonts.googleapis.com%2Fcss%3Ffamily%3DRoboto;" parent="1" vertex="1">
          <mxGeometry x="799" y="315" width="20" height="20" as="geometry" />
        </mxCell>
        <mxCell id="tpPD9y9O5CYVwDH-KBWt-91" value="" style="endArrow=none;html=1;entryX=0.5;entryY=1;entryDx=0;entryDy=0;exitX=1;exitY=0.75;exitDx=0;exitDy=0;fontFamily=Roboto;fontSource=https%3A%2F%2Ffonts.googleapis.com%2Fcss%3Ffamily%3DRoboto;" parent="1" target="tpPD9y9O5CYVwDH-KBWt-90" edge="1" source="tpPD9y9O5CYVwDH-KBWt-75">
          <mxGeometry x="432" y="-53.5" width="50" height="50" as="geometry">
            <mxPoint x="762" y="330" as="sourcePoint" />
            <mxPoint x="487" y="401.5" as="targetPoint" />
          </mxGeometry>
        </mxCell>
        <mxCell id="tpPD9y9O5CYVwDH-KBWt-92" value="&lt;div style=&quot;font-size: 11px&quot;&gt;&lt;font style=&quot;font-size: 11px&quot;&gt;Data di nascita&lt;/font&gt;&lt;/div&gt;" style="text;html=1;strokeColor=none;fillColor=none;align=center;verticalAlign=middle;whiteSpace=wrap;rounded=0;rotation=0;fontFamily=Roboto;fontSource=https%3A%2F%2Ffonts.googleapis.com%2Fcss%3Ffamily%3DRoboto;" parent="1" vertex="1">
          <mxGeometry x="819" y="315" width="55" height="20" as="geometry" />
        </mxCell>
        <mxCell id="tpPD9y9O5CYVwDH-KBWt-93" value="&lt;div style=&quot;font-size: 11px&quot;&gt;&lt;font style=&quot;font-size: 11px&quot;&gt;Luogo di nascita&lt;/font&gt;&lt;/div&gt;" style="text;html=1;strokeColor=none;fillColor=none;align=center;verticalAlign=middle;whiteSpace=wrap;rounded=0;rotation=0;fontFamily=Roboto;fontSource=https%3A%2F%2Ffonts.googleapis.com%2Fcss%3Ffamily%3DRoboto;" parent="1" vertex="1">
          <mxGeometry x="819" y="285" width="55" height="20" as="geometry" />
        </mxCell>
        <mxCell id="tpPD9y9O5CYVwDH-KBWt-95" value="" style="endArrow=none;html=1;rounded=0;entryX=0.5;entryY=0;entryDx=0;entryDy=0;exitX=0.5;exitY=1;exitDx=0;exitDy=0;fontFamily=Roboto;fontSource=https%3A%2F%2Ffonts.googleapis.com%2Fcss%3Ffamily%3DRoboto;" parent="1" source="tpPD9y9O5CYVwDH-KBWt-60" target="WNvgnv75Yjdc2z-mZm8R-5" edge="1">
          <mxGeometry relative="1" as="geometry">
            <mxPoint x="374" y="573.5" as="sourcePoint" />
            <mxPoint x="514" y="533.5" as="targetPoint" />
          </mxGeometry>
        </mxCell>
        <mxCell id="tpPD9y9O5CYVwDH-KBWt-96" value="(1,N)" style="text;html=1;strokeColor=none;fillColor=none;align=center;verticalAlign=middle;whiteSpace=wrap;rounded=0;fontFamily=Roboto;fontSource=https%3A%2F%2Ffonts.googleapis.com%2Fcss%3Ffamily%3DRoboto;" parent="1" vertex="1">
          <mxGeometry x="340" y="340" width="40" height="20" as="geometry" />
        </mxCell>
        <mxCell id="tpPD9y9O5CYVwDH-KBWt-98" value="(1,1)" style="text;html=1;strokeColor=none;fillColor=none;align=center;verticalAlign=middle;whiteSpace=wrap;rounded=0;rotation=0;fontFamily=Roboto;fontSource=https%3A%2F%2Ffonts.googleapis.com%2Fcss%3Ffamily%3DRoboto;" parent="1" vertex="1">
          <mxGeometry x="340" y="440" width="40" height="20" as="geometry" />
        </mxCell>
        <mxCell id="tpPD9y9O5CYVwDH-KBWt-77" value="" style="ellipse;whiteSpace=wrap;html=1;aspect=fixed;fontFamily=Roboto;fontSource=https%3A%2F%2Ffonts.googleapis.com%2Fcss%3Ffamily%3DRoboto;" parent="1" vertex="1">
          <mxGeometry x="730" y="230" width="20" height="20" as="geometry" />
        </mxCell>
        <mxCell id="tpPD9y9O5CYVwDH-KBWt-78" value="" style="endArrow=none;html=1;entryX=0.5;entryY=1;entryDx=0;entryDy=0;fontFamily=Roboto;fontSource=https%3A%2F%2Ffonts.googleapis.com%2Fcss%3Ffamily%3DRoboto;" parent="1" target="tpPD9y9O5CYVwDH-KBWt-77" edge="1">
          <mxGeometry x="732" y="210" width="50" height="50" as="geometry">
            <mxPoint x="740" y="280" as="sourcePoint" />
            <mxPoint x="1172" y="210" as="targetPoint" />
          </mxGeometry>
        </mxCell>
        <mxCell id="tpPD9y9O5CYVwDH-KBWt-79" value="&lt;font style=&quot;font-size: 12px;&quot;&gt;Cognome&lt;/font&gt;" style="text;html=1;strokeColor=none;fillColor=none;align=center;verticalAlign=middle;whiteSpace=wrap;rounded=0;fontFamily=Roboto;fontSource=https%3A%2F%2Ffonts.googleapis.com%2Fcss%3Ffamily%3DRoboto;fontSize=12;" parent="1" vertex="1">
          <mxGeometry x="721.5" y="210" width="40" height="20" as="geometry" />
        </mxCell>
        <mxCell id="tpPD9y9O5CYVwDH-KBWt-81" value="" style="endArrow=none;html=1;exitX=0.5;exitY=0;exitDx=0;exitDy=0;entryX=0.5;entryY=1;entryDx=0;entryDy=0;fontFamily=Roboto;fontSource=https%3A%2F%2Ffonts.googleapis.com%2Fcss%3Ffamily%3DRoboto;" parent="1" edge="1" target="tpPD9y9O5CYVwDH-KBWt-82" source="tpPD9y9O5CYVwDH-KBWt-75">
          <mxGeometry x="680" y="200" width="50" height="50" as="geometry">
            <mxPoint x="700" y="270" as="sourcePoint" />
            <mxPoint x="700" y="240" as="targetPoint" />
          </mxGeometry>
        </mxCell>
        <mxCell id="tpPD9y9O5CYVwDH-KBWt-82" value="" style="ellipse;fontFamily=Roboto;fontSource=https%3A%2F%2Ffonts.googleapis.com%2Fcss%3Ffamily%3DRoboto;fillColor=#000000;" parent="1" vertex="1">
          <mxGeometry x="690" y="220" width="20" height="20" as="geometry" />
        </mxCell>
        <mxCell id="tpPD9y9O5CYVwDH-KBWt-83" value="C.F." style="text;html=1;strokeColor=none;fillColor=none;align=center;verticalAlign=middle;whiteSpace=wrap;rounded=0;fontFamily=Roboto;fontSource=https%3A%2F%2Ffonts.googleapis.com%2Fcss%3Ffamily%3DRoboto;" parent="1" vertex="1">
          <mxGeometry x="681" y="200" width="40" height="20" as="geometry" />
        </mxCell>
        <mxCell id="tpPD9y9O5CYVwDH-KBWt-85" value="" style="ellipse;whiteSpace=wrap;html=1;aspect=fixed;fontFamily=Roboto;fontSource=https%3A%2F%2Ffonts.googleapis.com%2Fcss%3Ffamily%3DRoboto;" parent="1" vertex="1">
          <mxGeometry x="650" y="230" width="20" height="20" as="geometry" />
        </mxCell>
        <mxCell id="tpPD9y9O5CYVwDH-KBWt-86" value="" style="endArrow=none;html=1;entryX=0.5;entryY=1;entryDx=0;entryDy=0;fontFamily=Roboto;fontSource=https%3A%2F%2Ffonts.googleapis.com%2Fcss%3Ffamily%3DRoboto;exitX=0.167;exitY=0;exitDx=0;exitDy=0;exitPerimeter=0;" parent="1" target="tpPD9y9O5CYVwDH-KBWt-85" edge="1" source="tpPD9y9O5CYVwDH-KBWt-75">
          <mxGeometry x="570" y="205" width="50" height="50" as="geometry">
            <mxPoint x="660" y="270" as="sourcePoint" />
            <mxPoint x="1010" y="205" as="targetPoint" />
          </mxGeometry>
        </mxCell>
        <mxCell id="tpPD9y9O5CYVwDH-KBWt-87" value="Nome" style="text;html=1;strokeColor=none;fillColor=none;align=center;verticalAlign=middle;whiteSpace=wrap;rounded=0;fontFamily=Roboto;fontSource=https%3A%2F%2Ffonts.googleapis.com%2Fcss%3Ffamily%3DRoboto;fontSize=12;" parent="1" vertex="1">
          <mxGeometry x="640" y="210" width="40" height="20" as="geometry" />
        </mxCell>
        <mxCell id="WNvgnv75Yjdc2z-mZm8R-5" value="Richiesta d&#39;acquisto" style="rounded=0;whiteSpace=wrap;html=1;fontFamily=Roboto;fontSource=https%3A%2F%2Ffonts.googleapis.com%2Fcss%3Ffamily%3DRoboto;" parent="1" vertex="1">
          <mxGeometry x="280" y="460" width="120" height="60" as="geometry" />
        </mxCell>
        <mxCell id="WNvgnv75Yjdc2z-mZm8R-33" value="" style="group;fontFamily=Roboto;fontSource=https%3A%2F%2Ffonts.googleapis.com%2Fcss%3Ffamily%3DRoboto;rotation=-180;" parent="1" connectable="0" vertex="1">
          <mxGeometry x="250" y="520" width="70" height="70" as="geometry" />
        </mxCell>
        <mxCell id="WNvgnv75Yjdc2z-mZm8R-34" value="" style="endArrow=none;html=1;fontFamily=Roboto;fontSource=https%3A%2F%2Ffonts.googleapis.com%2Fcss%3Ffamily%3DRoboto;" parent="WNvgnv75Yjdc2z-mZm8R-33" edge="1">
          <mxGeometry width="50" height="50" relative="1" as="geometry">
            <mxPoint x="50" as="sourcePoint" />
            <mxPoint x="50" y="30" as="targetPoint" />
          </mxGeometry>
        </mxCell>
        <mxCell id="WNvgnv75Yjdc2z-mZm8R-35" value="" style="ellipse;fontFamily=Roboto;fontSource=https%3A%2F%2Ffonts.googleapis.com%2Fcss%3Ffamily%3DRoboto;rotation=-180;" parent="WNvgnv75Yjdc2z-mZm8R-33" vertex="1">
          <mxGeometry x="40" y="30" width="20" height="20" as="geometry" />
        </mxCell>
        <mxCell id="WNvgnv75Yjdc2z-mZm8R-36" value="Codice articolo" style="text;html=1;strokeColor=none;fillColor=none;align=center;verticalAlign=middle;whiteSpace=wrap;rounded=0;fontFamily=Roboto;fontSource=https%3A%2F%2Ffonts.googleapis.com%2Fcss%3Ffamily%3DRoboto;rotation=0;" parent="WNvgnv75Yjdc2z-mZm8R-33" vertex="1">
          <mxGeometry x="8" y="50" width="85" height="20" as="geometry" />
        </mxCell>
        <mxCell id="WNvgnv75Yjdc2z-mZm8R-37" value="" style="group;fontFamily=Roboto;fontSource=https%3A%2F%2Ffonts.googleapis.com%2Fcss%3Ffamily%3DRoboto;rotation=-180;" parent="1" connectable="0" vertex="1">
          <mxGeometry x="360" y="520" width="40" height="80" as="geometry" />
        </mxCell>
        <mxCell id="WNvgnv75Yjdc2z-mZm8R-38" value="" style="ellipse;whiteSpace=wrap;html=1;aspect=fixed;fontFamily=Roboto;fontSource=https%3A%2F%2Ffonts.googleapis.com%2Fcss%3Ffamily%3DRoboto;rotation=-180;" parent="WNvgnv75Yjdc2z-mZm8R-37" vertex="1">
          <mxGeometry x="10" y="30" width="20" height="20" as="geometry" />
        </mxCell>
        <mxCell id="WNvgnv75Yjdc2z-mZm8R-39" value="" style="endArrow=none;html=1;entryX=0.5;entryY=1;entryDx=0;entryDy=0;fontFamily=Roboto;fontSource=https%3A%2F%2Ffonts.googleapis.com%2Fcss%3Ffamily%3DRoboto;" parent="WNvgnv75Yjdc2z-mZm8R-37" target="WNvgnv75Yjdc2z-mZm8R-38" edge="1">
          <mxGeometry x="-10" y="20" width="50" height="50" as="geometry">
            <mxPoint x="20" as="sourcePoint" />
            <mxPoint x="-400" y="70" as="targetPoint" />
          </mxGeometry>
        </mxCell>
        <mxCell id="WNvgnv75Yjdc2z-mZm8R-40" value="&lt;div&gt;Data emissione&lt;/div&gt;" style="text;html=1;strokeColor=none;fillColor=none;align=center;verticalAlign=middle;whiteSpace=wrap;rounded=0;fontFamily=Roboto;fontSource=https%3A%2F%2Ffonts.googleapis.com%2Fcss%3Ffamily%3DRoboto;rotation=0;" parent="WNvgnv75Yjdc2z-mZm8R-37" vertex="1">
          <mxGeometry y="55" width="40" height="20" as="geometry" />
        </mxCell>
        <mxCell id="80SjEbUUBAHeHSITV065-6" value="Articolo" style="rounded=0;whiteSpace=wrap;html=1;fontFamily=Roboto;fontSource=https%3A%2F%2Ffonts.googleapis.com%2Fcss%3Ffamily%3DRoboto;" vertex="1" parent="1">
          <mxGeometry x="640" y="400" width="120" height="60" as="geometry" />
        </mxCell>
        <mxCell id="80SjEbUUBAHeHSITV065-10" style="edgeStyle=orthogonalEdgeStyle;rounded=0;orthogonalLoop=1;jettySize=auto;html=1;exitX=0;exitY=0;exitDx=0;exitDy=24.5;exitPerimeter=0;endArrow=none;endFill=0;fontFamily=Roboto;fontSource=https%3A%2F%2Ffonts.googleapis.com%2Fcss%3Ffamily%3DRoboto;fontSize=12;entryX=0.5;entryY=0;entryDx=0;entryDy=0;" edge="1" parent="1" source="80SjEbUUBAHeHSITV065-7" target="80SjEbUUBAHeHSITV065-8">
          <mxGeometry relative="1" as="geometry">
            <mxPoint x="707.9655172413793" y="500" as="targetPoint" />
          </mxGeometry>
        </mxCell>
        <mxCell id="80SjEbUUBAHeHSITV065-7" value="" style="html=1;shadow=0;dashed=0;align=center;verticalAlign=middle;shape=mxgraph.arrows2.arrow;dy=0.6;dx=40;direction=north;notch=0;fontFamily=Roboto;fontSource=https%3A%2F%2Ffonts.googleapis.com%2Fcss%3Ffamily%3DRoboto;fontSize=12;labelBackgroundColor=none;labelBorderColor=none;" vertex="1" parent="1">
          <mxGeometry x="682.5" y="460" width="35" height="20" as="geometry" />
        </mxCell>
        <mxCell id="80SjEbUUBAHeHSITV065-45" style="edgeStyle=none;rounded=0;sketch=0;orthogonalLoop=1;jettySize=auto;html=1;exitX=1;exitY=0.75;exitDx=0;exitDy=0;endArrow=none;endFill=0;entryX=0;entryY=0.5;entryDx=0;entryDy=0;" edge="1" parent="1" source="80SjEbUUBAHeHSITV065-8" target="80SjEbUUBAHeHSITV065-44">
          <mxGeometry relative="1" as="geometry">
            <mxPoint x="860" y="565.2" as="targetPoint" />
            <Array as="points">
              <mxPoint x="860" y="565" />
              <mxPoint x="860" y="590" />
            </Array>
          </mxGeometry>
        </mxCell>
        <mxCell id="80SjEbUUBAHeHSITV065-8" value="&lt;div&gt;Articolo&lt;/div&gt;&lt;div&gt;Ordinabile&lt;/div&gt;" style="rounded=0;whiteSpace=wrap;html=1;fontFamily=Roboto;fontSource=https%3A%2F%2Ffonts.googleapis.com%2Fcss%3Ffamily%3DRoboto;" vertex="1" parent="1">
          <mxGeometry x="730" y="520" width="120" height="60" as="geometry" />
        </mxCell>
        <mxCell id="80SjEbUUBAHeHSITV065-12" style="edgeStyle=orthogonalEdgeStyle;rounded=0;orthogonalLoop=1;jettySize=auto;html=1;exitX=0.5;exitY=0;exitDx=0;exitDy=0;endArrow=none;endFill=0;fontFamily=Roboto;fontSource=https%3A%2F%2Ffonts.googleapis.com%2Fcss%3Ffamily%3DRoboto;fontSize=12;entryX=0;entryY=0;entryDx=0;entryDy=10.5;entryPerimeter=0;" edge="1" parent="1" source="80SjEbUUBAHeHSITV065-9" target="80SjEbUUBAHeHSITV065-7">
          <mxGeometry relative="1" as="geometry">
            <mxPoint x="690" y="500" as="targetPoint" />
          </mxGeometry>
        </mxCell>
        <mxCell id="80SjEbUUBAHeHSITV065-39" style="edgeStyle=elbowEdgeStyle;rounded=0;sketch=0;orthogonalLoop=1;jettySize=auto;elbow=vertical;html=1;exitX=0;exitY=0.5;exitDx=0;exitDy=0;endArrow=none;endFill=0;entryX=0.5;entryY=1;entryDx=0;entryDy=0;" edge="1" parent="1" source="80SjEbUUBAHeHSITV065-9" target="80SjEbUUBAHeHSITV065-35">
          <mxGeometry relative="1" as="geometry">
            <mxPoint x="480" y="550.0930232558139" as="targetPoint" />
            <Array as="points">
              <mxPoint x="520" y="550" />
            </Array>
          </mxGeometry>
        </mxCell>
        <mxCell id="80SjEbUUBAHeHSITV065-9" value="&lt;div&gt;Articolo&lt;/div&gt;&lt;div&gt;Richiedibile&lt;br&gt;&lt;/div&gt;" style="rounded=0;whiteSpace=wrap;html=1;fontFamily=Roboto;fontSource=https%3A%2F%2Ffonts.googleapis.com%2Fcss%3Ffamily%3DRoboto;" vertex="1" parent="1">
          <mxGeometry x="550" y="520" width="120" height="60" as="geometry" />
        </mxCell>
        <mxCell id="0HRdDKmyG6_fZgm3HTcE-55" value="" style="endArrow=none;html=1;entryX=0.5;entryY=1;entryDx=0;entryDy=0;fontFamily=Roboto;fontSource=https%3A%2F%2Ffonts.googleapis.com%2Fcss%3Ffamily%3DRoboto;exitX=0;exitY=0.833;exitDx=0;exitDy=0;exitPerimeter=0;" parent="1" source="80SjEbUUBAHeHSITV065-6" target="0HRdDKmyG6_fZgm3HTcE-54" edge="1">
          <mxGeometry x="540.72" y="355" width="50" height="50" as="geometry">
            <mxPoint x="620" y="460" as="sourcePoint" />
            <mxPoint x="564.72" y="30" as="targetPoint" />
          </mxGeometry>
        </mxCell>
        <mxCell id="WNvgnv75Yjdc2z-mZm8R-56" value="" style="endArrow=none;html=1;fontFamily=Roboto;fontSource=https%3A%2F%2Ffonts.googleapis.com%2Fcss%3Ffamily%3DRoboto;exitX=1;exitY=0.5;exitDx=0;exitDy=0;" parent="1" edge="1" target="WNvgnv75Yjdc2z-mZm8R-57">
          <mxGeometry x="658" y="355" width="50" height="50" as="geometry">
            <mxPoint x="760" y="410" as="sourcePoint" />
            <mxPoint x="792" y="410" as="targetPoint" />
          </mxGeometry>
        </mxCell>
        <mxCell id="WNvgnv75Yjdc2z-mZm8R-57" value="" style="ellipse;fontFamily=Roboto;fontSource=https%3A%2F%2Ffonts.googleapis.com%2Fcss%3Ffamily%3DRoboto;fillColor=#000000;" parent="1" vertex="1">
          <mxGeometry x="790" y="400" width="20" height="20" as="geometry" />
        </mxCell>
        <mxCell id="0HRdDKmyG6_fZgm3HTcE-54" value="" style="ellipse;whiteSpace=wrap;html=1;aspect=fixed;rotation=-90;fontFamily=Roboto;fontSource=https%3A%2F%2Ffonts.googleapis.com%2Fcss%3Ffamily%3DRoboto;" parent="1" vertex="1">
          <mxGeometry x="590.72" y="440" width="20" height="20" as="geometry" />
        </mxCell>
        <mxCell id="0HRdDKmyG6_fZgm3HTcE-56" value="Unità di misura" style="text;html=1;strokeColor=none;fillColor=none;align=center;verticalAlign=middle;whiteSpace=wrap;rounded=0;rotation=0;fontFamily=Roboto;fontSource=https%3A%2F%2Ffonts.googleapis.com%2Fcss%3Ffamily%3DRoboto;" parent="1" vertex="1">
          <mxGeometry x="540.72" y="440" width="50" height="20" as="geometry" />
        </mxCell>
        <mxCell id="80SjEbUUBAHeHSITV065-14" value="" style="endArrow=none;html=1;entryX=0.5;entryY=1;entryDx=0;entryDy=0;fontFamily=Roboto;fontSource=https%3A%2F%2Ffonts.googleapis.com%2Fcss%3Ffamily%3DRoboto;exitX=0;exitY=0.833;exitDx=0;exitDy=0;exitPerimeter=0;" edge="1" parent="1" target="80SjEbUUBAHeHSITV065-15">
          <mxGeometry x="540.72" y="315" width="50" height="50" as="geometry">
            <mxPoint x="640" y="409.9799999999999" as="sourcePoint" />
            <mxPoint x="564.72" y="-10" as="targetPoint" />
          </mxGeometry>
        </mxCell>
        <mxCell id="80SjEbUUBAHeHSITV065-15" value="" style="ellipse;whiteSpace=wrap;html=1;aspect=fixed;rotation=-90;fontFamily=Roboto;fontSource=https%3A%2F%2Ffonts.googleapis.com%2Fcss%3Ffamily%3DRoboto;" vertex="1" parent="1">
          <mxGeometry x="590.72" y="400" width="20" height="20" as="geometry" />
        </mxCell>
        <mxCell id="80SjEbUUBAHeHSITV065-16" value="&lt;div&gt;Descrizione&lt;/div&gt;" style="text;html=1;strokeColor=none;fillColor=none;align=center;verticalAlign=middle;whiteSpace=wrap;rounded=0;rotation=0;fontFamily=Roboto;fontSource=https%3A%2F%2Ffonts.googleapis.com%2Fcss%3Ffamily%3DRoboto;" vertex="1" parent="1">
          <mxGeometry x="530" y="400" width="50" height="20" as="geometry" />
        </mxCell>
        <mxCell id="80SjEbUUBAHeHSITV065-18" value="&lt;div&gt;Codice&lt;/div&gt;&lt;div&gt;articolo&lt;/div&gt;" style="text;html=1;strokeColor=none;fillColor=none;align=center;verticalAlign=middle;whiteSpace=wrap;rounded=0;rotation=0;fontFamily=Roboto;fontSource=https%3A%2F%2Ffonts.googleapis.com%2Fcss%3Ffamily%3DRoboto;" vertex="1" parent="1">
          <mxGeometry x="810" y="400" width="50" height="20" as="geometry" />
        </mxCell>
        <mxCell id="80SjEbUUBAHeHSITV065-20" value="" style="group;fontFamily=Roboto;fontSource=https%3A%2F%2Ffonts.googleapis.com%2Fcss%3Ffamily%3DRoboto;rotation=-180;" connectable="0" vertex="1" parent="1">
          <mxGeometry x="730" y="580" width="40" height="80" as="geometry" />
        </mxCell>
        <mxCell id="80SjEbUUBAHeHSITV065-21" value="" style="ellipse;whiteSpace=wrap;html=1;aspect=fixed;fontFamily=Roboto;fontSource=https%3A%2F%2Ffonts.googleapis.com%2Fcss%3Ffamily%3DRoboto;rotation=-180;" vertex="1" parent="80SjEbUUBAHeHSITV065-20">
          <mxGeometry x="10" y="30" width="20" height="20" as="geometry" />
        </mxCell>
        <mxCell id="80SjEbUUBAHeHSITV065-22" value="" style="endArrow=none;html=1;entryX=0.5;entryY=1;entryDx=0;entryDy=0;fontFamily=Roboto;fontSource=https%3A%2F%2Ffonts.googleapis.com%2Fcss%3Ffamily%3DRoboto;" edge="1" parent="80SjEbUUBAHeHSITV065-20" target="80SjEbUUBAHeHSITV065-21">
          <mxGeometry x="-10" y="20" width="50" height="50" as="geometry">
            <mxPoint x="20" as="sourcePoint" />
            <mxPoint x="-400" y="70" as="targetPoint" />
          </mxGeometry>
        </mxCell>
        <mxCell id="80SjEbUUBAHeHSITV065-23" value="&lt;div&gt;Prezzo&lt;/div&gt;&lt;div&gt;unitario&lt;/div&gt;" style="text;html=1;strokeColor=none;fillColor=none;align=center;verticalAlign=middle;whiteSpace=wrap;rounded=0;fontFamily=Roboto;fontSource=https%3A%2F%2Ffonts.googleapis.com%2Fcss%3Ffamily%3DRoboto;rotation=0;" vertex="1" parent="80SjEbUUBAHeHSITV065-20">
          <mxGeometry y="55" width="40" height="20" as="geometry" />
        </mxCell>
        <mxCell id="80SjEbUUBAHeHSITV065-24" value="" style="group;fontFamily=Roboto;fontSource=https%3A%2F%2Ffonts.googleapis.com%2Fcss%3Ffamily%3DRoboto;rotation=-180;" connectable="0" vertex="1" parent="1">
          <mxGeometry x="810" y="580" width="40" height="80" as="geometry" />
        </mxCell>
        <mxCell id="80SjEbUUBAHeHSITV065-25" value="" style="ellipse;whiteSpace=wrap;html=1;aspect=fixed;fontFamily=Roboto;fontSource=https%3A%2F%2Ffonts.googleapis.com%2Fcss%3Ffamily%3DRoboto;rotation=-180;" vertex="1" parent="80SjEbUUBAHeHSITV065-24">
          <mxGeometry x="10" y="30" width="20" height="20" as="geometry" />
        </mxCell>
        <mxCell id="80SjEbUUBAHeHSITV065-26" value="" style="endArrow=none;html=1;entryX=0.5;entryY=1;entryDx=0;entryDy=0;fontFamily=Roboto;fontSource=https%3A%2F%2Ffonts.googleapis.com%2Fcss%3Ffamily%3DRoboto;" edge="1" parent="80SjEbUUBAHeHSITV065-24" target="80SjEbUUBAHeHSITV065-25">
          <mxGeometry x="-10" y="20" width="50" height="50" as="geometry">
            <mxPoint x="20" as="sourcePoint" />
            <mxPoint x="-400" y="70" as="targetPoint" />
          </mxGeometry>
        </mxCell>
        <mxCell id="80SjEbUUBAHeHSITV065-27" value="&lt;div&gt;Quantità&lt;/div&gt;&lt;div&gt;minima&lt;br&gt;&lt;/div&gt;" style="text;html=1;strokeColor=none;fillColor=none;align=center;verticalAlign=middle;whiteSpace=wrap;rounded=0;fontFamily=Roboto;fontSource=https%3A%2F%2Ffonts.googleapis.com%2Fcss%3Ffamily%3DRoboto;rotation=0;" vertex="1" parent="80SjEbUUBAHeHSITV065-24">
          <mxGeometry y="55" width="40" height="20" as="geometry" />
        </mxCell>
        <mxCell id="80SjEbUUBAHeHSITV065-28" value="" style="endArrow=none;html=1;fontFamily=Roboto;fontSource=https%3A%2F%2Ffonts.googleapis.com%2Fcss%3Ffamily%3DRoboto;entryX=0.5;entryY=0;entryDx=0;entryDy=0;exitX=0.5;exitY=1;exitDx=0;exitDy=0;" edge="1" parent="1" target="80SjEbUUBAHeHSITV065-29" source="80SjEbUUBAHeHSITV065-8">
          <mxGeometry x="648" y="605" width="50" height="50" as="geometry">
            <mxPoint x="750" y="660" as="sourcePoint" />
            <mxPoint x="782" y="660" as="targetPoint" />
          </mxGeometry>
        </mxCell>
        <mxCell id="80SjEbUUBAHeHSITV065-29" value="" style="ellipse;fontFamily=Roboto;fontSource=https%3A%2F%2Ffonts.googleapis.com%2Fcss%3Ffamily%3DRoboto;fillColor=#000000;" vertex="1" parent="1">
          <mxGeometry x="780" y="650" width="20" height="20" as="geometry" />
        </mxCell>
        <mxCell id="80SjEbUUBAHeHSITV065-30" value="&lt;div&gt;Codice&lt;/div&gt;&lt;div&gt;fornitore&lt;/div&gt;" style="text;html=1;strokeColor=none;fillColor=none;align=center;verticalAlign=middle;whiteSpace=wrap;rounded=0;rotation=0;fontFamily=Roboto;fontSource=https%3A%2F%2Ffonts.googleapis.com%2Fcss%3Ffamily%3DRoboto;" vertex="1" parent="1">
          <mxGeometry x="765" y="680" width="50" height="20" as="geometry" />
        </mxCell>
        <mxCell id="80SjEbUUBAHeHSITV065-31" value="" style="endArrow=none;html=1;fontFamily=Roboto;fontSource=https%3A%2F%2Ffonts.googleapis.com%2Fcss%3Ffamily%3DRoboto;entryX=0;entryY=0.5;entryDx=0;entryDy=0;exitX=1;exitY=0.5;exitDx=0;exitDy=0;" edge="1" target="80SjEbUUBAHeHSITV065-32" parent="1">
          <mxGeometry x="658" y="395" width="50" height="50" as="geometry">
            <mxPoint x="760" y="450" as="sourcePoint" />
            <mxPoint x="792" y="450" as="targetPoint" />
          </mxGeometry>
        </mxCell>
        <mxCell id="80SjEbUUBAHeHSITV065-32" value="" style="ellipse;fontFamily=Roboto;fontSource=https%3A%2F%2Ffonts.googleapis.com%2Fcss%3Ffamily%3DRoboto;" vertex="1" parent="1">
          <mxGeometry x="790" y="440" width="20" height="20" as="geometry" />
        </mxCell>
        <mxCell id="80SjEbUUBAHeHSITV065-33" value="&lt;div&gt;Classe&lt;/div&gt;&lt;div&gt;merceologica&lt;br&gt;&lt;/div&gt;" style="text;html=1;strokeColor=none;fillColor=none;align=center;verticalAlign=middle;whiteSpace=wrap;rounded=0;rotation=0;fontFamily=Roboto;fontSource=https%3A%2F%2Ffonts.googleapis.com%2Fcss%3Ffamily%3DRoboto;" vertex="1" parent="1">
          <mxGeometry x="824" y="440" width="50" height="20" as="geometry" />
        </mxCell>
        <mxCell id="80SjEbUUBAHeHSITV065-35" value="&lt;font data-font-src=&quot;https://fonts.googleapis.com/css?family=Roboto&quot; face=&quot;Roboto&quot;&gt;Include&lt;/font&gt;" style="rhombus;whiteSpace=wrap;html=1;rounded=0;sketch=0;" vertex="1" parent="1">
          <mxGeometry x="440" y="500" width="80" height="40" as="geometry" />
        </mxCell>
        <mxCell id="80SjEbUUBAHeHSITV065-37" value="" style="endArrow=none;html=1;entryX=0.5;entryY=0;entryDx=0;entryDy=0;exitX=1;exitY=0.5;exitDx=0;exitDy=0;rounded=0;" edge="1" parent="1" source="WNvgnv75Yjdc2z-mZm8R-5" target="80SjEbUUBAHeHSITV065-35">
          <mxGeometry width="50" height="50" relative="1" as="geometry">
            <mxPoint x="430" y="500" as="sourcePoint" />
            <mxPoint x="480" y="450" as="targetPoint" />
            <Array as="points">
              <mxPoint x="480" y="490" />
            </Array>
          </mxGeometry>
        </mxCell>
        <mxCell id="80SjEbUUBAHeHSITV065-40" value="Fornisce" style="rhombus;whiteSpace=wrap;html=1;rounded=0;sketch=0;" vertex="1" parent="1">
          <mxGeometry x="880" y="490" width="80" height="40" as="geometry" />
        </mxCell>
        <mxCell id="80SjEbUUBAHeHSITV065-41" style="rounded=0;sketch=0;orthogonalLoop=1;jettySize=auto;elbow=vertical;html=1;endArrow=none;endFill=0;entryX=1;entryY=0.5;entryDx=0;entryDy=0;exitX=0;exitY=0.5;exitDx=0;exitDy=0;" edge="1" parent="1" source="WNvgnv75Yjdc2z-mZm8R-7" target="80SjEbUUBAHeHSITV065-40">
          <mxGeometry relative="1" as="geometry">
            <mxPoint x="980" y="480" as="sourcePoint" />
            <mxPoint x="980" y="510" as="targetPoint" />
            <Array as="points">
              <mxPoint x="980" y="490" />
              <mxPoint x="980" y="510" />
            </Array>
          </mxGeometry>
        </mxCell>
        <mxCell id="80SjEbUUBAHeHSITV065-43" value="" style="endArrow=none;html=1;exitX=1;exitY=0.25;exitDx=0;exitDy=0;entryX=0;entryY=0.5;entryDx=0;entryDy=0;rounded=0;" edge="1" parent="1" source="80SjEbUUBAHeHSITV065-8" target="80SjEbUUBAHeHSITV065-40">
          <mxGeometry width="50" height="50" relative="1" as="geometry">
            <mxPoint x="880" y="590" as="sourcePoint" />
            <mxPoint x="920" y="550" as="targetPoint" />
            <Array as="points">
              <mxPoint x="860" y="535" />
              <mxPoint x="860" y="510" />
            </Array>
          </mxGeometry>
        </mxCell>
        <mxCell id="80SjEbUUBAHeHSITV065-46" style="edgeStyle=none;rounded=0;sketch=0;orthogonalLoop=1;jettySize=auto;html=1;exitX=1;exitY=0.5;exitDx=0;exitDy=0;endArrow=none;endFill=0;entryX=0.5;entryY=0;entryDx=0;entryDy=0;" edge="1" parent="1" source="80SjEbUUBAHeHSITV065-44" target="WNvgnv75Yjdc2z-mZm8R-8">
          <mxGeometry relative="1" as="geometry">
            <mxPoint x="1060" y="589.8571428571428" as="targetPoint" />
            <Array as="points">
              <mxPoint x="1060" y="590" />
            </Array>
          </mxGeometry>
        </mxCell>
        <mxCell id="80SjEbUUBAHeHSITV065-44" value="&lt;div&gt;Contiene&lt;/div&gt;" style="rhombus;whiteSpace=wrap;html=1;rounded=0;sketch=0;" vertex="1" parent="1">
          <mxGeometry x="880" y="570" width="80" height="40" as="geometry" />
        </mxCell>
      </root>
    </mxGraphModel>
  </diagram>
</mxfile>
